<svg width="2636" height="208" viewBox="0 0 2636 208" fill="none" xmlns="http://www.w3.org/2000/svg">
<rect x="0.5" width="733" height="208" rx="15" fill="#0F004A"/>
<rect x="0.5" width="733" height="208" rx="15" fill="url(#paint0_linear_304_77)" fill-opacity="0.2"/>
<path d="M236.35 131.75C232.35 131.75 228.625 131.1 225.175 129.8C221.775 128.45 218.8 126.575 216.25 124.175C213.75 121.725 211.8 118.85 210.4 115.55C209 112.25 208.3 108.65 208.3 104.75C208.3 100.85 209 97.25 210.4 93.95C211.8 90.65 213.775 87.8 216.325 85.4C218.875 82.95 221.85 81.075 225.25 79.775C228.65 78.425 232.375 77.75 236.425 77.75C240.725 77.75 244.65 78.5 248.2 80C251.75 81.45 254.75 83.625 257.2 86.525L250.9 92.45C249 90.4 246.875 88.875 244.525 87.875C242.175 86.825 239.625 86.3 236.875 86.3C234.125 86.3 231.6 86.75 229.3 87.65C227.05 88.55 225.075 89.825 223.375 91.475C221.725 93.125 220.425 95.075 219.475 97.325C218.575 99.575 218.125 102.05 218.125 104.75C218.125 107.45 218.575 109.925 219.475 112.175C220.425 114.425 221.725 116.375 223.375 118.025C225.075 119.675 227.05 120.95 229.3 121.85C231.6 122.75 234.125 123.2 236.875 123.2C239.625 123.2 242.175 122.7 244.525 121.7C246.875 120.65 249 119.075 250.9 116.975L257.2 122.975C254.75 125.825 251.75 128 248.2 129.5C244.65 131 240.7 131.75 236.35 131.75ZM288.367 90.5C291.567 90.5 294.417 91.125 296.917 92.375C299.467 93.625 301.467 95.55 302.917 98.15C304.367 100.7 305.092 104 305.092 108.05V131H295.717V109.25C295.717 105.7 294.867 103.05 293.167 101.3C291.517 99.55 289.192 98.675 286.192 98.675C283.992 98.675 282.042 99.125 280.342 100.025C278.642 100.925 277.317 102.275 276.367 104.075C275.467 105.825 275.017 108.05 275.017 110.75V131H265.642V75.35H275.017V101.75L272.992 98.45C274.392 95.9 276.417 93.95 279.067 92.6C281.767 91.2 284.867 90.5 288.367 90.5ZM335.883 131.525C331.433 131.525 327.533 130.65 324.183 128.9C320.883 127.1 318.308 124.65 316.458 121.55C314.658 118.45 313.758 114.925 313.758 110.975C313.758 106.975 314.633 103.45 316.383 100.4C318.183 97.3 320.633 94.875 323.733 93.125C326.883 91.375 330.458 90.5 334.458 90.5C338.358 90.5 341.833 91.35 344.883 93.05C347.933 94.75 350.333 97.15 352.083 100.25C353.833 103.35 354.708 107 354.708 111.2C354.708 111.6 354.683 112.05 354.633 112.55C354.633 113.05 354.608 113.525 354.558 113.975H321.183V107.75H349.608L345.933 109.7C345.983 107.4 345.508 105.375 344.508 103.625C343.508 101.875 342.133 100.5 340.383 99.5C338.683 98.5 336.708 98 334.458 98C332.158 98 330.133 98.5 328.383 99.5C326.683 100.5 325.333 101.9 324.333 103.7C323.383 105.45 322.908 107.525 322.908 109.925V111.425C322.908 113.825 323.458 115.95 324.558 117.8C325.658 119.65 327.208 121.075 329.208 122.075C331.208 123.075 333.508 123.575 336.108 123.575C338.358 123.575 340.383 123.225 342.183 122.525C343.983 121.825 345.583 120.725 346.983 119.225L352.008 125C350.208 127.1 347.933 128.725 345.183 129.875C342.483 130.975 339.383 131.525 335.883 131.525ZM385.913 131.525C382.663 131.525 379.688 130.775 376.988 129.275C374.338 127.775 372.213 125.525 370.613 122.525C369.063 119.475 368.288 115.625 368.288 110.975C368.288 106.275 369.038 102.425 370.538 99.425C372.088 96.425 374.188 94.2 376.838 92.75C379.488 91.25 382.513 90.5 385.913 90.5C389.863 90.5 393.338 91.35 396.338 93.05C399.388 94.75 401.788 97.125 403.538 100.175C405.338 103.225 406.238 106.825 406.238 110.975C406.238 115.125 405.338 118.75 403.538 121.85C401.788 124.9 399.388 127.275 396.338 128.975C393.338 130.675 389.863 131.525 385.913 131.525ZM363.713 145.55V90.95H372.638V100.4L372.338 111.05L373.088 121.7V145.55H363.713ZM384.863 123.5C387.113 123.5 389.113 123 390.863 122C392.663 121 394.088 119.55 395.138 117.65C396.188 115.75 396.713 113.525 396.713 110.975C396.713 108.375 396.188 106.15 395.138 104.3C394.088 102.4 392.663 100.95 390.863 99.95C389.113 98.95 387.113 98.45 384.863 98.45C382.613 98.45 380.588 98.95 378.788 99.95C376.988 100.95 375.563 102.4 374.513 104.3C373.463 106.15 372.938 108.375 372.938 110.975C372.938 113.525 373.463 115.75 374.513 117.65C375.563 119.55 376.988 121 378.788 122C380.588 123 382.613 123.5 384.863 123.5ZM415.129 131V90.95H424.504V131H415.129ZM419.854 84.35C418.104 84.35 416.654 83.8 415.504 82.7C414.404 81.6 413.854 80.275 413.854 78.725C413.854 77.125 414.404 75.8 415.504 74.75C416.654 73.65 418.104 73.1 419.854 73.1C421.604 73.1 423.029 73.625 424.129 74.675C425.279 75.675 425.854 76.95 425.854 78.5C425.854 80.15 425.304 81.55 424.204 82.7C423.104 83.8 421.654 84.35 419.854 84.35ZM459.534 90.5C462.734 90.5 465.584 91.125 468.084 92.375C470.634 93.625 472.634 95.55 474.084 98.15C475.534 100.7 476.259 104 476.259 108.05V131H466.884V109.25C466.884 105.7 466.034 103.05 464.334 101.3C462.684 99.55 460.359 98.675 457.359 98.675C455.159 98.675 453.209 99.125 451.509 100.025C449.809 100.925 448.484 102.275 447.534 104.075C446.634 105.825 446.184 108.05 446.184 110.75V131H436.809V90.95H445.734V101.75L444.159 98.45C445.559 95.9 447.584 93.95 450.234 92.6C452.934 91.2 456.034 90.5 459.534 90.5ZM512.827 131V122.9L512.302 121.175V107C512.302 104.25 511.477 102.125 509.827 100.625C508.177 99.075 505.677 98.3 502.327 98.3C500.077 98.3 497.852 98.65 495.652 99.35C493.502 100.05 491.677 101.025 490.177 102.275L486.502 95.45C488.652 93.8 491.202 92.575 494.152 91.775C497.152 90.925 500.252 90.5 503.452 90.5C509.252 90.5 513.727 91.9 516.877 94.7C520.077 97.45 521.677 101.725 521.677 107.525V131H512.827ZM500.227 131.525C497.227 131.525 494.602 131.025 492.352 130.025C490.102 128.975 488.352 127.55 487.102 125.75C485.902 123.9 485.302 121.825 485.302 119.525C485.302 117.275 485.827 115.25 486.877 113.45C487.977 111.65 489.752 110.225 492.202 109.175C494.652 108.125 497.902 107.6 501.952 107.6H513.577V113.825H502.627C499.427 113.825 497.277 114.35 496.177 115.4C495.077 116.4 494.527 117.65 494.527 119.15C494.527 120.85 495.202 122.2 496.552 123.2C497.902 124.2 499.777 124.7 502.177 124.7C504.477 124.7 506.527 124.175 508.327 123.125C510.177 122.075 511.502 120.525 512.302 118.475L513.877 124.1C512.977 126.45 511.352 128.275 509.002 129.575C506.702 130.875 503.777 131.525 500.227 131.525Z" fill="white" fill-opacity="0.73"/>
<rect x="833.5" width="733" height="208" rx="15" fill="#0F004A"/>
<rect x="833.5" width="733" height="208" rx="15" fill="url(#paint1_linear_304_77)" fill-opacity="0.2"/>
<path d="M927.05 131V78.5H950C955.7 78.5 960.7 79.6 965 81.8C969.3 84 972.65 87.05 975.05 90.95C977.45 94.85 978.65 99.45 978.65 104.75C978.65 110 977.45 114.6 975.05 118.55C972.65 122.45 969.3 125.5 965 127.7C960.7 129.9 955.7 131 950 131H927.05ZM936.8 122.75H949.55C953.5 122.75 956.9 122 959.75 120.5C962.65 119 964.875 116.9 966.425 114.2C968.025 111.5 968.825 108.35 968.825 104.75C968.825 101.1 968.025 97.95 966.425 95.3C964.875 92.6 962.65 90.5 959.75 89C956.9 87.5 953.5 86.75 949.55 86.75H936.8V122.75ZM988.113 131V90.95H997.488V131H988.113ZM992.838 84.35C991.088 84.35 989.638 83.8 988.488 82.7C987.388 81.6 986.838 80.275 986.838 78.725C986.838 77.125 987.388 75.8 988.488 74.75C989.638 73.65 991.088 73.1 992.838 73.1C994.588 73.1 996.013 73.625 997.113 74.675C998.263 75.675 998.838 76.95 998.838 78.5C998.838 80.15 998.288 81.55 997.188 82.7C996.088 83.8 994.638 84.35 992.838 84.35ZM1022.17 131.525C1018.82 131.525 1015.59 131.1 1012.49 130.25C1009.44 129.35 1007.02 128.275 1005.22 127.025L1008.82 119.9C1010.62 121.05 1012.77 122 1015.27 122.75C1017.77 123.5 1020.27 123.875 1022.77 123.875C1025.72 123.875 1027.84 123.475 1029.14 122.675C1030.49 121.875 1031.17 120.8 1031.17 119.45C1031.17 118.35 1030.72 117.525 1029.82 116.975C1028.92 116.375 1027.74 115.925 1026.29 115.625C1024.84 115.325 1023.22 115.05 1021.42 114.8C1019.67 114.55 1017.89 114.225 1016.09 113.825C1014.34 113.375 1012.74 112.75 1011.29 111.95C1009.84 111.1 1008.67 109.975 1007.77 108.575C1006.87 107.175 1006.42 105.325 1006.42 103.025C1006.42 100.475 1007.14 98.275 1008.59 96.425C1010.04 94.525 1012.07 93.075 1014.67 92.075C1017.32 91.025 1020.44 90.5 1024.04 90.5C1026.74 90.5 1029.47 90.8 1032.22 91.4C1034.97 92 1037.24 92.85 1039.04 93.95L1035.44 101.075C1033.54 99.925 1031.62 99.15 1029.67 98.75C1027.77 98.3 1025.87 98.075 1023.97 98.075C1021.12 98.075 1018.99 98.5 1017.59 99.35C1016.24 100.2 1015.57 101.275 1015.57 102.575C1015.57 103.775 1016.02 104.675 1016.92 105.275C1017.82 105.875 1018.99 106.35 1020.44 106.7C1021.89 107.05 1023.49 107.35 1025.24 107.6C1027.04 107.8 1028.82 108.125 1030.57 108.575C1032.32 109.025 1033.92 109.65 1035.37 110.45C1036.87 111.2 1038.07 112.275 1038.97 113.675C1039.87 115.075 1040.32 116.9 1040.32 119.15C1040.32 121.65 1039.57 123.825 1038.07 125.675C1036.62 127.525 1034.54 128.975 1031.84 130.025C1029.14 131.025 1025.92 131.525 1022.17 131.525ZM1070.59 131.525C1067.34 131.525 1064.37 130.775 1061.67 129.275C1059.02 127.775 1056.89 125.525 1055.29 122.525C1053.74 119.475 1052.97 115.625 1052.97 110.975C1052.97 106.275 1053.72 102.425 1055.22 99.425C1056.77 96.425 1058.87 94.2 1061.52 92.75C1064.17 91.25 1067.19 90.5 1070.59 90.5C1074.54 90.5 1078.02 91.35 1081.02 93.05C1084.07 94.75 1086.47 97.125 1088.22 100.175C1090.02 103.225 1090.92 106.825 1090.92 110.975C1090.92 115.125 1090.02 118.75 1088.22 121.85C1086.47 124.9 1084.07 127.275 1081.02 128.975C1078.02 130.675 1074.54 131.525 1070.59 131.525ZM1048.39 145.55V90.95H1057.32V100.4L1057.02 111.05L1057.77 121.7V145.55H1048.39ZM1069.54 123.5C1071.79 123.5 1073.79 123 1075.54 122C1077.34 121 1078.77 119.55 1079.82 117.65C1080.87 115.75 1081.39 113.525 1081.39 110.975C1081.39 108.375 1080.87 106.15 1079.82 104.3C1078.77 102.4 1077.34 100.95 1075.54 99.95C1073.79 98.95 1071.79 98.45 1069.54 98.45C1067.29 98.45 1065.27 98.95 1063.47 99.95C1061.67 100.95 1060.24 102.4 1059.19 104.3C1058.14 106.15 1057.62 108.375 1057.62 110.975C1057.62 113.525 1058.14 115.75 1059.19 117.65C1060.24 119.55 1061.67 121 1063.47 122C1065.27 123 1067.29 123.5 1069.54 123.5ZM1117.81 131.525C1113.71 131.525 1110.06 130.65 1106.86 128.9C1103.66 127.1 1101.13 124.65 1099.28 121.55C1097.43 118.45 1096.51 114.925 1096.51 110.975C1096.51 106.975 1097.43 103.45 1099.28 100.4C1101.13 97.3 1103.66 94.875 1106.86 93.125C1110.06 91.375 1113.71 90.5 1117.81 90.5C1121.96 90.5 1125.63 91.375 1128.83 93.125C1132.08 94.875 1134.61 97.275 1136.41 100.325C1138.26 103.375 1139.18 106.925 1139.18 110.975C1139.18 114.925 1138.26 118.45 1136.41 121.55C1134.61 124.65 1132.08 127.1 1128.83 128.9C1125.63 130.65 1121.96 131.525 1117.81 131.525ZM1117.81 123.5C1120.11 123.5 1122.16 123 1123.96 122C1125.76 121 1127.16 119.55 1128.16 117.65C1129.21 115.75 1129.73 113.525 1129.73 110.975C1129.73 108.375 1129.21 106.15 1128.16 104.3C1127.16 102.4 1125.76 100.95 1123.96 99.95C1122.16 98.95 1120.13 98.45 1117.88 98.45C1115.58 98.45 1113.53 98.95 1111.73 99.95C1109.98 100.95 1108.58 102.4 1107.53 104.3C1106.48 106.15 1105.96 108.375 1105.96 110.975C1105.96 113.525 1106.48 115.75 1107.53 117.65C1108.58 119.55 1109.98 121 1111.73 122C1113.53 123 1115.56 123.5 1117.81 123.5ZM1170.87 90.5C1174.07 90.5 1176.92 91.125 1179.42 92.375C1181.97 93.625 1183.97 95.55 1185.42 98.15C1186.87 100.7 1187.6 104 1187.6 108.05V131H1178.22V109.25C1178.22 105.7 1177.37 103.05 1175.67 101.3C1174.02 99.55 1171.7 98.675 1168.7 98.675C1166.5 98.675 1164.55 99.125 1162.85 100.025C1161.15 100.925 1159.82 102.275 1158.87 104.075C1157.97 105.825 1157.52 108.05 1157.52 110.75V131H1148.15V90.95H1157.07V101.75L1155.5 98.45C1156.9 95.9 1158.92 93.95 1161.57 92.6C1164.27 91.2 1167.37 90.5 1170.87 90.5ZM1199.49 131V90.95H1208.86V131H1199.49ZM1204.21 84.35C1202.46 84.35 1201.01 83.8 1199.86 82.7C1198.76 81.6 1198.21 80.275 1198.21 78.725C1198.21 77.125 1198.76 75.8 1199.86 74.75C1201.01 73.65 1202.46 73.1 1204.21 73.1C1205.96 73.1 1207.39 73.625 1208.49 74.675C1209.64 75.675 1210.21 76.95 1210.21 78.5C1210.21 80.15 1209.66 81.55 1208.56 82.7C1207.46 83.8 1206.01 84.35 1204.21 84.35ZM1243.37 131.525C1239.97 131.525 1236.94 130.775 1234.29 129.275C1231.64 127.775 1229.54 125.525 1227.99 122.525C1226.49 119.475 1225.74 115.625 1225.74 110.975C1225.74 106.275 1226.52 102.425 1228.07 99.425C1229.67 96.425 1231.79 94.2 1234.44 92.75C1237.14 91.25 1240.12 90.5 1243.37 90.5C1247.32 90.5 1250.79 91.35 1253.79 93.05C1256.84 94.75 1259.24 97.125 1260.99 100.175C1262.79 103.225 1263.69 106.825 1263.69 110.975C1263.69 115.125 1262.79 118.725 1260.99 121.775C1259.24 124.825 1256.84 127.225 1253.79 128.975C1250.79 130.675 1247.32 131.525 1243.37 131.525ZM1221.17 131V75.35H1230.54V100.25L1229.79 110.9L1230.09 121.55V131H1221.17ZM1242.32 123.5C1244.57 123.5 1246.57 123 1248.32 122C1250.12 121 1251.54 119.55 1252.59 117.65C1253.64 115.75 1254.17 113.525 1254.17 110.975C1254.17 108.375 1253.64 106.15 1252.59 104.3C1251.54 102.4 1250.12 100.95 1248.32 99.95C1246.57 98.95 1244.57 98.45 1242.32 98.45C1240.07 98.45 1238.04 98.95 1236.24 99.95C1234.44 100.95 1233.02 102.4 1231.97 104.3C1230.92 106.15 1230.39 108.375 1230.39 110.975C1230.39 113.525 1230.92 115.75 1231.97 117.65C1233.02 119.55 1234.44 121 1236.24 122C1238.04 123 1240.07 123.5 1242.32 123.5ZM1272.59 131V90.95H1281.96V131H1272.59ZM1277.31 84.35C1275.56 84.35 1274.11 83.8 1272.96 82.7C1271.86 81.6 1271.31 80.275 1271.31 78.725C1271.31 77.125 1271.86 75.8 1272.96 74.75C1274.11 73.65 1275.56 73.1 1277.31 73.1C1279.06 73.1 1280.49 73.625 1281.59 74.675C1282.74 75.675 1283.31 76.95 1283.31 78.5C1283.31 80.15 1282.76 81.55 1281.66 82.7C1280.56 83.8 1279.11 84.35 1277.31 84.35ZM1294.27 131V75.35H1303.64V131H1294.27ZM1315.94 131V90.95H1325.32V131H1315.94ZM1320.67 84.35C1318.92 84.35 1317.47 83.8 1316.32 82.7C1315.22 81.6 1314.67 80.275 1314.67 78.725C1314.67 77.125 1315.22 75.8 1316.32 74.75C1317.47 73.65 1318.92 73.1 1320.67 73.1C1322.42 73.1 1323.84 73.625 1324.94 74.675C1326.09 75.675 1326.67 76.95 1326.67 78.5C1326.67 80.15 1326.12 81.55 1325.02 82.7C1323.92 83.8 1322.47 84.35 1320.67 84.35ZM1354.57 131.525C1350.72 131.525 1347.25 130.675 1344.15 128.975C1341.1 127.225 1338.7 124.825 1336.95 121.775C1335.2 118.725 1334.32 115.125 1334.32 110.975C1334.32 106.825 1335.2 103.225 1336.95 100.175C1338.7 97.125 1341.1 94.75 1344.15 93.05C1347.25 91.35 1350.72 90.5 1354.57 90.5C1357.92 90.5 1360.92 91.25 1363.57 92.75C1366.22 94.2 1368.32 96.425 1369.87 99.425C1371.42 102.425 1372.2 106.275 1372.2 110.975C1372.2 115.625 1371.45 119.475 1369.95 122.525C1368.45 125.525 1366.37 127.775 1363.72 129.275C1361.07 130.775 1358.02 131.525 1354.57 131.525ZM1355.7 123.5C1357.95 123.5 1359.95 123 1361.7 122C1363.5 121 1364.92 119.55 1365.97 117.65C1367.07 115.75 1367.62 113.525 1367.62 110.975C1367.62 108.375 1367.07 106.15 1365.97 104.3C1364.92 102.4 1363.5 100.95 1361.7 99.95C1359.95 98.95 1357.95 98.45 1355.7 98.45C1353.45 98.45 1351.42 98.95 1349.62 99.95C1347.87 100.95 1346.45 102.4 1345.35 104.3C1344.3 106.15 1343.77 108.375 1343.77 110.975C1343.77 113.525 1344.3 115.75 1345.35 117.65C1346.45 119.55 1347.87 121 1349.62 122C1351.42 123 1353.45 123.5 1355.7 123.5ZM1367.85 131V121.55L1368.22 110.9L1367.47 100.25V75.35H1376.77V131H1367.85ZM1413.79 131V122.9L1413.26 121.175V107C1413.26 104.25 1412.44 102.125 1410.79 100.625C1409.14 99.075 1406.64 98.3 1403.29 98.3C1401.04 98.3 1398.81 98.65 1396.61 99.35C1394.46 100.05 1392.64 101.025 1391.14 102.275L1387.46 95.45C1389.61 93.8 1392.16 92.575 1395.11 91.775C1398.11 90.925 1401.21 90.5 1404.41 90.5C1410.21 90.5 1414.69 91.9 1417.84 94.7C1421.04 97.45 1422.64 101.725 1422.64 107.525V131H1413.79ZM1401.19 131.525C1398.19 131.525 1395.56 131.025 1393.31 130.025C1391.06 128.975 1389.31 127.55 1388.06 125.75C1386.86 123.9 1386.26 121.825 1386.26 119.525C1386.26 117.275 1386.79 115.25 1387.84 113.45C1388.94 111.65 1390.71 110.225 1393.16 109.175C1395.61 108.125 1398.86 107.6 1402.91 107.6H1414.54V113.825H1403.59C1400.39 113.825 1398.24 114.35 1397.14 115.4C1396.04 116.4 1395.49 117.65 1395.49 119.15C1395.49 120.85 1396.16 122.2 1397.51 123.2C1398.86 124.2 1400.74 124.7 1403.14 124.7C1405.44 124.7 1407.49 124.175 1409.29 123.125C1411.14 122.075 1412.46 120.525 1413.26 118.475L1414.84 124.1C1413.94 126.45 1412.31 128.275 1409.96 129.575C1407.66 130.875 1404.74 131.525 1401.19 131.525ZM1451.69 131.525C1447.84 131.525 1444.37 130.675 1441.27 128.975C1438.22 127.225 1435.82 124.825 1434.07 121.775C1432.32 118.725 1431.44 115.125 1431.44 110.975C1431.44 106.825 1432.32 103.225 1434.07 100.175C1435.82 97.125 1438.22 94.75 1441.27 93.05C1444.37 91.35 1447.84 90.5 1451.69 90.5C1455.04 90.5 1458.04 91.25 1460.69 92.75C1463.34 94.2 1465.44 96.425 1466.99 99.425C1468.54 102.425 1469.32 106.275 1469.32 110.975C1469.32 115.625 1468.57 119.475 1467.07 122.525C1465.57 125.525 1463.49 127.775 1460.84 129.275C1458.19 130.775 1455.14 131.525 1451.69 131.525ZM1452.82 123.5C1455.07 123.5 1457.07 123 1458.82 122C1460.62 121 1462.04 119.55 1463.09 117.65C1464.19 115.75 1464.74 113.525 1464.74 110.975C1464.74 108.375 1464.19 106.15 1463.09 104.3C1462.04 102.4 1460.62 100.95 1458.82 99.95C1457.07 98.95 1455.07 98.45 1452.82 98.45C1450.57 98.45 1448.54 98.95 1446.74 99.95C1444.99 100.95 1443.57 102.4 1442.47 104.3C1441.42 106.15 1440.89 108.375 1440.89 110.975C1440.89 113.525 1441.42 115.75 1442.47 117.65C1443.57 119.55 1444.99 121 1446.74 122C1448.54 123 1450.57 123.5 1452.82 123.5ZM1464.97 131V121.55L1465.34 110.9L1464.59 100.25V75.35H1473.89V131H1464.97Z" fill="white" fill-opacity="0.73"/>
<rect x="1666.5" width="969" height="208" rx="15" fill="url(#paint2_linear_304_77)"/>
<rect x="1666.5" width="969" height="208" rx="15" fill="url(#paint3_linear_304_77)" fill-opacity="0.2"/>
<path d="M1945.12 136.9C1940.32 136.9 1935.85 136.12 1931.71 134.56C1927.63 132.94 1924.06 130.69 1921 127.81C1918 124.87 1915.66 121.42 1913.98 117.46C1912.3 113.5 1911.46 109.18 1911.46 104.5C1911.46 99.82 1912.3 95.5 1913.98 91.54C1915.66 87.58 1918.03 84.16 1921.09 81.28C1924.15 78.34 1927.72 76.09 1931.8 74.53C1935.88 72.91 1940.35 72.1 1945.21 72.1C1950.37 72.1 1955.08 73 1959.34 74.8C1963.6 76.54 1967.2 79.15 1970.14 82.63L1962.58 89.74C1960.3 87.28 1957.75 85.45 1954.93 84.25C1952.11 82.99 1949.05 82.36 1945.75 82.36C1942.45 82.36 1939.42 82.9 1936.66 83.98C1933.96 85.06 1931.59 86.59 1929.55 88.57C1927.57 90.55 1926.01 92.89 1924.87 95.59C1923.79 98.29 1923.25 101.26 1923.25 104.5C1923.25 107.74 1923.79 110.71 1924.87 113.41C1926.01 116.11 1927.57 118.45 1929.55 120.43C1931.59 122.41 1933.96 123.94 1936.66 125.02C1939.42 126.1 1942.45 126.64 1945.75 126.64C1949.05 126.64 1952.11 126.04 1954.93 124.84C1957.75 123.58 1960.3 121.69 1962.58 119.17L1970.14 126.37C1967.2 129.79 1963.6 132.4 1959.34 134.2C1955.08 136 1950.34 136.9 1945.12 136.9ZM2000.02 136.63C1995.1 136.63 1990.72 135.58 1986.88 133.48C1983.04 131.32 1980.01 128.38 1977.79 124.66C1975.57 120.94 1974.46 116.71 1974.46 111.97C1974.46 107.17 1975.57 102.94 1977.79 99.28C1980.01 95.56 1983.04 92.65 1986.88 90.55C1990.72 88.45 1995.1 87.4 2000.02 87.4C2005 87.4 2009.41 88.45 2013.25 90.55C2017.15 92.65 2020.18 95.53 2022.34 99.19C2024.56 102.85 2025.67 107.11 2025.67 111.97C2025.67 116.71 2024.56 120.94 2022.34 124.66C2020.18 128.38 2017.15 131.32 2013.25 133.48C2009.41 135.58 2005 136.63 2000.02 136.63ZM2000.02 127C2002.78 127 2005.24 126.4 2007.4 125.2C2009.56 124 2011.24 122.26 2012.44 119.98C2013.7 117.7 2014.33 115.03 2014.33 111.97C2014.33 108.85 2013.7 106.18 2012.44 103.96C2011.24 101.68 2009.56 99.94 2007.4 98.74C2005.24 97.54 2002.81 96.94 2000.11 96.94C1997.35 96.94 1994.89 97.54 1992.73 98.74C1990.63 99.94 1988.95 101.68 1987.69 103.96C1986.43 106.18 1985.8 108.85 1985.8 111.97C1985.8 115.03 1986.43 117.7 1987.69 119.98C1988.95 122.26 1990.63 124 1992.73 125.2C1994.89 126.4 1997.32 127 2000.02 127ZM2054.52 136.63C2049.24 136.63 2045.16 135.28 2042.28 132.58C2039.4 129.82 2037.96 125.77 2037.96 120.43V77.32H2049.21V120.16C2049.21 122.44 2049.78 124.21 2050.92 125.47C2052.12 126.73 2053.77 127.36 2055.87 127.36C2058.39 127.36 2060.49 126.7 2062.17 125.38L2065.32 133.39C2064 134.47 2062.38 135.28 2060.46 135.82C2058.54 136.36 2056.56 136.63 2054.52 136.63ZM2030.04 97.3V88.3H2062.08V97.3H2030.04ZM2074.58 136V87.94H2085.83V136H2074.58ZM2080.25 80.02C2078.15 80.02 2076.41 79.36 2075.03 78.04C2073.71 76.72 2073.05 75.13 2073.05 73.27C2073.05 71.35 2073.71 69.76 2075.03 68.5C2076.41 67.18 2078.15 66.52 2080.25 66.52C2082.35 66.52 2084.06 67.15 2085.38 68.41C2086.76 69.61 2087.45 71.14 2087.45 73C2087.45 74.98 2086.79 76.66 2085.47 78.04C2084.15 79.36 2082.41 80.02 2080.25 80.02ZM2096.63 136V128.89L2126.24 93.07L2128.31 96.94H2097.17V87.94H2137.31V95.05L2107.7 130.87L2105.45 127H2138.12V136H2096.63ZM2178.1 136V126.28L2177.47 124.21V107.2C2177.47 103.9 2176.48 101.35 2174.5 99.55C2172.52 97.69 2169.52 96.76 2165.5 96.76C2162.8 96.76 2160.13 97.18 2157.49 98.02C2154.91 98.86 2152.72 100.03 2150.92 101.53L2146.51 93.34C2149.09 91.36 2152.15 89.89 2155.69 88.93C2159.29 87.91 2163.01 87.4 2166.85 87.4C2173.81 87.4 2179.18 89.08 2182.96 92.44C2186.8 95.74 2188.72 100.87 2188.72 107.83V136H2178.1ZM2162.98 136.63C2159.38 136.63 2156.23 136.03 2153.53 134.83C2150.83 133.57 2148.73 131.86 2147.23 129.7C2145.79 127.48 2145.07 124.99 2145.07 122.23C2145.07 119.53 2145.7 117.1 2146.96 114.94C2148.28 112.78 2150.41 111.07 2153.35 109.81C2156.29 108.55 2160.19 107.92 2165.05 107.92H2179V115.39H2165.86C2162.02 115.39 2159.44 116.02 2158.12 117.28C2156.8 118.48 2156.14 119.98 2156.14 121.78C2156.14 123.82 2156.95 125.44 2158.57 126.64C2160.19 127.84 2162.44 128.44 2165.32 128.44C2168.08 128.44 2170.54 127.81 2172.7 126.55C2174.92 125.29 2176.51 123.43 2177.47 120.97L2179.36 127.72C2178.28 130.54 2176.33 132.73 2173.51 134.29C2170.75 135.85 2167.24 136.63 2162.98 136.63ZM2225.3 136.63C2220.26 136.63 2215.76 135.58 2211.8 133.48C2207.9 131.32 2204.84 128.38 2202.62 124.66C2200.4 120.94 2199.29 116.71 2199.29 111.97C2199.29 107.17 2200.4 102.94 2202.62 99.28C2204.84 95.56 2207.9 92.65 2211.8 90.55C2215.76 88.45 2220.26 87.4 2225.3 87.4C2229.98 87.4 2234.09 88.36 2237.63 90.28C2241.23 92.14 2243.96 94.9 2245.82 98.56L2237.18 103.6C2235.74 101.32 2233.97 99.64 2231.87 98.56C2229.83 97.48 2227.61 96.94 2225.21 96.94C2222.45 96.94 2219.96 97.54 2217.74 98.74C2215.52 99.94 2213.78 101.68 2212.52 103.96C2211.26 106.18 2210.63 108.85 2210.63 111.97C2210.63 115.09 2211.26 117.79 2212.52 120.07C2213.78 122.29 2215.52 124 2217.74 125.2C2219.96 126.4 2222.45 127 2225.21 127C2227.61 127 2229.83 126.46 2231.87 125.38C2233.97 124.3 2235.74 122.62 2237.18 120.34L2245.82 125.38C2243.96 128.98 2241.23 131.77 2237.63 133.75C2234.09 135.67 2229.98 136.63 2225.3 136.63ZM2255.1 136V87.94H2266.35V136H2255.1ZM2260.77 80.02C2258.67 80.02 2256.93 79.36 2255.55 78.04C2254.23 76.72 2253.57 75.13 2253.57 73.27C2253.57 71.35 2254.23 69.76 2255.55 68.5C2256.93 67.18 2258.67 66.52 2260.77 66.52C2262.87 66.52 2264.58 67.15 2265.9 68.41C2267.28 69.61 2267.97 71.14 2267.97 73C2267.97 74.98 2267.31 76.66 2265.99 78.04C2264.67 79.36 2262.93 80.02 2260.77 80.02ZM2302.72 136.63C2297.8 136.63 2293.42 135.58 2289.58 133.48C2285.74 131.32 2282.71 128.38 2280.49 124.66C2278.27 120.94 2277.16 116.71 2277.16 111.97C2277.16 107.17 2278.27 102.94 2280.49 99.28C2282.71 95.56 2285.74 92.65 2289.58 90.55C2293.42 88.45 2297.8 87.4 2302.72 87.4C2307.7 87.4 2312.11 88.45 2315.95 90.55C2319.85 92.65 2322.88 95.53 2325.04 99.19C2327.26 102.85 2328.37 107.11 2328.37 111.97C2328.37 116.71 2327.26 120.94 2325.04 124.66C2322.88 128.38 2319.85 131.32 2315.95 133.48C2312.11 135.58 2307.7 136.63 2302.72 136.63ZM2302.72 127C2305.48 127 2307.94 126.4 2310.1 125.2C2312.26 124 2313.94 122.26 2315.14 119.98C2316.4 117.7 2317.03 115.03 2317.03 111.97C2317.03 108.85 2316.4 106.18 2315.14 103.96C2313.94 101.68 2312.26 99.94 2310.1 98.74C2307.94 97.54 2305.51 96.94 2302.81 96.94C2300.05 96.94 2297.59 97.54 2295.43 98.74C2293.33 99.94 2291.65 101.68 2290.39 103.96C2289.13 106.18 2288.5 108.85 2288.5 111.97C2288.5 115.03 2289.13 117.7 2290.39 119.98C2291.65 122.26 2293.33 124 2295.43 125.2C2297.59 126.4 2300.02 127 2302.72 127ZM2295.07 81.37L2307.22 69.04H2320.45L2304.79 81.37H2295.07ZM2366.4 87.4C2370.24 87.4 2373.66 88.15 2376.66 89.65C2379.72 91.15 2382.12 93.46 2383.86 96.58C2385.6 99.64 2386.47 103.6 2386.47 108.46V136H2375.22V109.9C2375.22 105.64 2374.2 102.46 2372.16 100.36C2370.18 98.26 2367.39 97.21 2363.79 97.21C2361.15 97.21 2358.81 97.75 2356.77 98.83C2354.73 99.91 2353.14 101.53 2352 103.69C2350.92 105.79 2350.38 108.46 2350.38 111.7V136H2339.13V87.94H2349.84V100.9L2347.95 96.94C2349.63 93.88 2352.06 91.54 2355.24 89.92C2358.48 88.24 2362.2 87.4 2366.4 87.4Z" fill="white" fill-opacity="0.84"/>
<defs>
<linearGradient id="paint0_linear_304_77" x1="90.436" y1="44.5001" x2="918.886" y2="253.358" gradientUnits="userSpaceOnUse">
<stop stop-color="white" stop-opacity="0.59"/>
<stop offset="1" stop-color="white" stop-opacity="0"/>
</linearGradient>
<linearGradient id="paint1_linear_304_77" x1="923.436" y1="44.5001" x2="1751.89" y2="253.358" gradientUnits="userSpaceOnUse">
<stop stop-color="white" stop-opacity="0.59"/>
<stop offset="1" stop-color="white" stop-opacity="0"/>
</linearGradient>
<linearGradient id="paint2_linear_304_77" x1="1772.55" y1="-52" x2="2666.57" y2="316.591" gradientUnits="userSpaceOnUse">
<stop stop-color="#323A89"/>
<stop offset="1" stop-color="#00084B"/>
</linearGradient>
<linearGradient id="paint3_linear_304_77" x1="1785.39" y1="44.5001" x2="2833.74" y2="393.889" gradientUnits="userSpaceOnUse">
<stop stop-color="white" stop-opacity="0.59"/>
<stop offset="1" stop-color="white" stop-opacity="0"/>
</linearGradient>
</defs>
</svg>
