<svg width="970" height="208" viewBox="0 0 970 208" fill="none" xmlns="http://www.w3.org/2000/svg">
<rect x="0.5" width="969" height="208" rx="15" fill="url(#paint0_linear_304_70)"/>
<rect x="0.5" width="969" height="208" rx="15" fill="url(#paint1_linear_304_70)" fill-opacity="0.2"/>
<path d="M279.12 136.9C274.32 136.9 269.85 136.12 265.71 134.56C261.63 132.94 258.06 130.69 255 127.81C252 124.87 249.66 121.42 247.98 117.46C246.3 113.5 245.46 109.18 245.46 104.5C245.46 99.82 246.3 95.5 247.98 91.54C249.66 87.58 252.03 84.16 255.09 81.28C258.15 78.34 261.72 76.09 265.8 74.53C269.88 72.91 274.35 72.1 279.21 72.1C284.37 72.1 289.08 73 293.34 74.8C297.6 76.54 301.2 79.15 304.14 82.63L296.58 89.74C294.3 87.28 291.75 85.45 288.93 84.25C286.11 82.99 283.05 82.36 279.75 82.36C276.45 82.36 273.42 82.9 270.66 83.98C267.96 85.06 265.59 86.59 263.55 88.57C261.57 90.55 260.01 92.89 258.87 95.59C257.79 98.29 257.25 101.26 257.25 104.5C257.25 107.74 257.79 110.71 258.87 113.41C260.01 116.11 261.57 118.45 263.55 120.43C265.59 122.41 267.96 123.94 270.66 125.02C273.42 126.1 276.45 126.64 279.75 126.64C283.05 126.64 286.11 126.04 288.93 124.84C291.75 123.58 294.3 121.69 296.58 119.17L304.14 126.37C301.2 129.79 297.6 132.4 293.34 134.2C289.08 136 284.34 136.9 279.12 136.9ZM334.025 136.63C329.105 136.63 324.725 135.58 320.885 133.48C317.045 131.32 314.015 128.38 311.795 124.66C309.575 120.94 308.465 116.71 308.465 111.97C308.465 107.17 309.575 102.94 311.795 99.28C314.015 95.56 317.045 92.65 320.885 90.55C324.725 88.45 329.105 87.4 334.025 87.4C339.005 87.4 343.415 88.45 347.255 90.55C351.155 92.65 354.185 95.53 356.345 99.19C358.565 102.85 359.675 107.11 359.675 111.97C359.675 116.71 358.565 120.94 356.345 124.66C354.185 128.38 351.155 131.32 347.255 133.48C343.415 135.58 339.005 136.63 334.025 136.63ZM334.025 127C336.785 127 339.245 126.4 341.405 125.2C343.565 124 345.245 122.26 346.445 119.98C347.705 117.7 348.335 115.03 348.335 111.97C348.335 108.85 347.705 106.18 346.445 103.96C345.245 101.68 343.565 99.94 341.405 98.74C339.245 97.54 336.815 96.94 334.115 96.94C331.355 96.94 328.895 97.54 326.735 98.74C324.635 99.94 322.955 101.68 321.695 103.96C320.435 106.18 319.805 108.85 319.805 111.97C319.805 115.03 320.435 117.7 321.695 119.98C322.955 122.26 324.635 124 326.735 125.2C328.895 126.4 331.325 127 334.025 127ZM388.523 136.63C383.243 136.63 379.163 135.28 376.283 132.58C373.403 129.82 371.963 125.77 371.963 120.43V77.32H383.213V120.16C383.213 122.44 383.783 124.21 384.923 125.47C386.123 126.73 387.773 127.36 389.873 127.36C392.393 127.36 394.493 126.7 396.173 125.38L399.323 133.39C398.003 134.47 396.383 135.28 394.463 135.82C392.543 136.36 390.563 136.63 388.523 136.63ZM364.043 97.3V88.3H396.083V97.3H364.043ZM408.577 136V87.94H419.827V136H408.577ZM414.247 80.02C412.147 80.02 410.407 79.36 409.027 78.04C407.707 76.72 407.047 75.13 407.047 73.27C407.047 71.35 407.707 69.76 409.027 68.5C410.407 67.18 412.147 66.52 414.247 66.52C416.347 66.52 418.057 67.15 419.377 68.41C420.757 69.61 421.447 71.14 421.447 73C421.447 74.98 420.787 76.66 419.467 78.04C418.147 79.36 416.407 80.02 414.247 80.02ZM430.633 136V128.89L460.243 93.07L462.313 96.94H431.173V87.94H471.313V95.05L441.703 130.87L439.453 127H472.123V136H430.633ZM512.103 136V126.28L511.473 124.21V107.2C511.473 103.9 510.483 101.35 508.503 99.55C506.523 97.69 503.523 96.76 499.503 96.76C496.803 96.76 494.133 97.18 491.493 98.02C488.913 98.86 486.723 100.03 484.923 101.53L480.513 93.34C483.093 91.36 486.153 89.89 489.693 88.93C493.293 87.91 497.013 87.4 500.853 87.4C507.813 87.4 513.183 89.08 516.963 92.44C520.803 95.74 522.723 100.87 522.723 107.83V136H512.103ZM496.983 136.63C493.383 136.63 490.233 136.03 487.533 134.83C484.833 133.57 482.733 131.86 481.233 129.7C479.793 127.48 479.073 124.99 479.073 122.23C479.073 119.53 479.703 117.1 480.963 114.94C482.283 112.78 484.413 111.07 487.353 109.81C490.293 108.55 494.193 107.92 499.053 107.92H513.003V115.39H499.863C496.023 115.39 493.443 116.02 492.123 117.28C490.803 118.48 490.143 119.98 490.143 121.78C490.143 123.82 490.953 125.44 492.573 126.64C494.193 127.84 496.443 128.44 499.323 128.44C502.083 128.44 504.543 127.81 506.703 126.55C508.923 125.29 510.513 123.43 511.473 120.97L513.363 127.72C512.283 130.54 510.333 132.73 507.513 134.29C504.753 135.85 501.243 136.63 496.983 136.63ZM559.299 136.63C554.259 136.63 549.759 135.58 545.799 133.48C541.899 131.32 538.839 128.38 536.619 124.66C534.399 120.94 533.289 116.71 533.289 111.97C533.289 107.17 534.399 102.94 536.619 99.28C538.839 95.56 541.899 92.65 545.799 90.55C549.759 88.45 554.259 87.4 559.299 87.4C563.979 87.4 568.089 88.36 571.629 90.28C575.229 92.14 577.959 94.9 579.819 98.56L571.179 103.6C569.739 101.32 567.969 99.64 565.869 98.56C563.829 97.48 561.609 96.94 559.209 96.94C556.449 96.94 553.959 97.54 551.739 98.74C549.519 99.94 547.779 101.68 546.519 103.96C545.259 106.18 544.629 108.85 544.629 111.97C544.629 115.09 545.259 117.79 546.519 120.07C547.779 122.29 549.519 124 551.739 125.2C553.959 126.4 556.449 127 559.209 127C561.609 127 563.829 126.46 565.869 125.38C567.969 124.3 569.739 122.62 571.179 120.34L579.819 125.38C577.959 128.98 575.229 131.77 571.629 133.75C568.089 135.67 563.979 136.63 559.299 136.63ZM589.105 136V87.94H600.355V136H589.105ZM594.775 80.02C592.675 80.02 590.935 79.36 589.555 78.04C588.235 76.72 587.575 75.13 587.575 73.27C587.575 71.35 588.235 69.76 589.555 68.5C590.935 67.18 592.675 66.52 594.775 66.52C596.875 66.52 598.585 67.15 599.905 68.41C601.285 69.61 601.975 71.14 601.975 73C601.975 74.98 601.315 76.66 599.995 78.04C598.675 79.36 596.935 80.02 594.775 80.02ZM636.72 136.63C631.8 136.63 627.42 135.58 623.58 133.48C619.74 131.32 616.71 128.38 614.49 124.66C612.27 120.94 611.16 116.71 611.16 111.97C611.16 107.17 612.27 102.94 614.49 99.28C616.71 95.56 619.74 92.65 623.58 90.55C627.42 88.45 631.8 87.4 636.72 87.4C641.7 87.4 646.11 88.45 649.95 90.55C653.85 92.65 656.88 95.53 659.04 99.19C661.26 102.85 662.37 107.11 662.37 111.97C662.37 116.71 661.26 120.94 659.04 124.66C656.88 128.38 653.85 131.32 649.95 133.48C646.11 135.58 641.7 136.63 636.72 136.63ZM636.72 127C639.48 127 641.94 126.4 644.1 125.2C646.26 124 647.94 122.26 649.14 119.98C650.4 117.7 651.03 115.03 651.03 111.97C651.03 108.85 650.4 106.18 649.14 103.96C647.94 101.68 646.26 99.94 644.1 98.74C641.94 97.54 639.51 96.94 636.81 96.94C634.05 96.94 631.59 97.54 629.43 98.74C627.33 99.94 625.65 101.68 624.39 103.96C623.13 106.18 622.5 108.85 622.5 111.97C622.5 115.03 623.13 117.7 624.39 119.98C625.65 122.26 627.33 124 629.43 125.2C631.59 126.4 634.02 127 636.72 127ZM629.07 81.37L641.22 69.04H654.45L638.79 81.37H629.07ZM700.398 87.4C704.238 87.4 707.658 88.15 710.658 89.65C713.718 91.15 716.118 93.46 717.858 96.58C719.598 99.64 720.468 103.6 720.468 108.46V136H709.218V109.9C709.218 105.64 708.198 102.46 706.158 100.36C704.178 98.26 701.388 97.21 697.788 97.21C695.148 97.21 692.808 97.75 690.768 98.83C688.728 99.91 687.138 101.53 685.998 103.69C684.918 105.79 684.378 108.46 684.378 111.7V136H673.128V87.94H683.838V100.9L681.948 96.94C683.628 93.88 686.058 91.54 689.238 89.92C692.478 88.24 696.198 87.4 700.398 87.4Z" fill="white" fill-opacity="0.84"/>
<defs>
<linearGradient id="paint0_linear_304_70" x1="106.554" y1="-52" x2="1000.57" y2="316.591" gradientUnits="userSpaceOnUse">
<stop stop-color="#323A89"/>
<stop offset="1" stop-color="#00084B"/>
</linearGradient>
<linearGradient id="paint1_linear_304_70" x1="119.392" y1="44.5001" x2="1167.74" y2="393.889" gradientUnits="userSpaceOnUse">
<stop stop-color="white" stop-opacity="0.59"/>
<stop offset="1" stop-color="white" stop-opacity="0"/>
</linearGradient>
</defs>
</svg>
