<svg width="734" height="208" viewBox="0 0 734 208" fill="none" xmlns="http://www.w3.org/2000/svg">
<rect x="0.5" width="733" height="208" rx="15" fill="#0F004A"/>
<rect x="0.5" width="733" height="208" rx="15" fill="url(#paint0_linear_304_75)" fill-opacity="0.2"/>
<path d="M94.05 131V78.5H117C122.7 78.5 127.7 79.6 132 81.8C136.3 84 139.65 87.05 142.05 90.95C144.45 94.85 145.65 99.45 145.65 104.75C145.65 110 144.45 114.6 142.05 118.55C139.65 122.45 136.3 125.5 132 127.7C127.7 129.9 122.7 131 117 131H94.05ZM103.8 122.75H116.55C120.5 122.75 123.9 122 126.75 120.5C129.65 119 131.875 116.9 133.425 114.2C135.025 111.5 135.825 108.35 135.825 104.75C135.825 101.1 135.025 97.95 133.425 95.3C131.875 92.6 129.65 90.5 126.75 89C123.9 87.5 120.5 86.75 116.55 86.75H103.8V122.75ZM155.113 131V90.95H164.488V131H155.113ZM159.838 84.35C158.088 84.35 156.638 83.8 155.488 82.7C154.388 81.6 153.838 80.275 153.838 78.725C153.838 77.125 154.388 75.8 155.488 74.75C156.638 73.65 158.088 73.1 159.838 73.1C161.588 73.1 163.013 73.625 164.113 74.675C165.263 75.675 165.838 76.95 165.838 78.5C165.838 80.15 165.288 81.55 164.188 82.7C163.088 83.8 161.638 84.35 159.838 84.35ZM189.168 131.525C185.818 131.525 182.593 131.1 179.493 130.25C176.443 129.35 174.018 128.275 172.218 127.025L175.818 119.9C177.618 121.05 179.768 122 182.268 122.75C184.768 123.5 187.268 123.875 189.768 123.875C192.718 123.875 194.843 123.475 196.143 122.675C197.493 121.875 198.168 120.8 198.168 119.45C198.168 118.35 197.718 117.525 196.818 116.975C195.918 116.375 194.743 115.925 193.293 115.625C191.843 115.325 190.218 115.05 188.418 114.8C186.668 114.55 184.893 114.225 183.093 113.825C181.343 113.375 179.743 112.75 178.293 111.95C176.843 111.1 175.668 109.975 174.768 108.575C173.868 107.175 173.418 105.325 173.418 103.025C173.418 100.475 174.143 98.275 175.593 96.425C177.043 94.525 179.068 93.075 181.668 92.075C184.318 91.025 187.443 90.5 191.043 90.5C193.743 90.5 196.468 90.8 199.218 91.4C201.968 92 204.243 92.85 206.043 93.95L202.443 101.075C200.543 99.925 198.618 99.15 196.668 98.75C194.768 98.3 192.868 98.075 190.968 98.075C188.118 98.075 185.993 98.5 184.593 99.35C183.243 100.2 182.568 101.275 182.568 102.575C182.568 103.775 183.018 104.675 183.918 105.275C184.818 105.875 185.993 106.35 187.443 106.7C188.893 107.05 190.493 107.35 192.243 107.6C194.043 107.8 195.818 108.125 197.568 108.575C199.318 109.025 200.918 109.65 202.368 110.45C203.868 111.2 205.068 112.275 205.968 113.675C206.868 115.075 207.318 116.9 207.318 119.15C207.318 121.65 206.568 123.825 205.068 125.675C203.618 127.525 201.543 128.975 198.843 130.025C196.143 131.025 192.918 131.525 189.168 131.525ZM237.591 131.525C234.341 131.525 231.366 130.775 228.666 129.275C226.016 127.775 223.891 125.525 222.291 122.525C220.741 119.475 219.966 115.625 219.966 110.975C219.966 106.275 220.716 102.425 222.216 99.425C223.766 96.425 225.866 94.2 228.516 92.75C231.166 91.25 234.191 90.5 237.591 90.5C241.541 90.5 245.016 91.35 248.016 93.05C251.066 94.75 253.466 97.125 255.216 100.175C257.016 103.225 257.916 106.825 257.916 110.975C257.916 115.125 257.016 118.75 255.216 121.85C253.466 124.9 251.066 127.275 248.016 128.975C245.016 130.675 241.541 131.525 237.591 131.525ZM215.391 145.55V90.95H224.316V100.4L224.016 111.05L224.766 121.7V145.55H215.391ZM236.541 123.5C238.791 123.5 240.791 123 242.541 122C244.341 121 245.766 119.55 246.816 117.65C247.866 115.75 248.391 113.525 248.391 110.975C248.391 108.375 247.866 106.15 246.816 104.3C245.766 102.4 244.341 100.95 242.541 99.95C240.791 98.95 238.791 98.45 236.541 98.45C234.291 98.45 232.266 98.95 230.466 99.95C228.666 100.95 227.241 102.4 226.191 104.3C225.141 106.15 224.616 108.375 224.616 110.975C224.616 113.525 225.141 115.75 226.191 117.65C227.241 119.55 228.666 121 230.466 122C232.266 123 234.291 123.5 236.541 123.5ZM284.807 131.525C280.707 131.525 277.057 130.65 273.857 128.9C270.657 127.1 268.132 124.65 266.282 121.55C264.432 118.45 263.507 114.925 263.507 110.975C263.507 106.975 264.432 103.45 266.282 100.4C268.132 97.3 270.657 94.875 273.857 93.125C277.057 91.375 280.707 90.5 284.807 90.5C288.957 90.5 292.632 91.375 295.832 93.125C299.082 94.875 301.607 97.275 303.407 100.325C305.257 103.375 306.182 106.925 306.182 110.975C306.182 114.925 305.257 118.45 303.407 121.55C301.607 124.65 299.082 127.1 295.832 128.9C292.632 130.65 288.957 131.525 284.807 131.525ZM284.807 123.5C287.107 123.5 289.157 123 290.957 122C292.757 121 294.157 119.55 295.157 117.65C296.207 115.75 296.732 113.525 296.732 110.975C296.732 108.375 296.207 106.15 295.157 104.3C294.157 102.4 292.757 100.95 290.957 99.95C289.157 98.95 287.132 98.45 284.882 98.45C282.582 98.45 280.532 98.95 278.732 99.95C276.982 100.95 275.582 102.4 274.532 104.3C273.482 106.15 272.957 108.375 272.957 110.975C272.957 113.525 273.482 115.75 274.532 117.65C275.582 119.55 276.982 121 278.732 122C280.532 123 282.557 123.5 284.807 123.5ZM337.872 90.5C341.072 90.5 343.922 91.125 346.422 92.375C348.972 93.625 350.972 95.55 352.422 98.15C353.872 100.7 354.597 104 354.597 108.05V131H345.222V109.25C345.222 105.7 344.372 103.05 342.672 101.3C341.022 99.55 338.697 98.675 335.697 98.675C333.497 98.675 331.547 99.125 329.847 100.025C328.147 100.925 326.822 102.275 325.872 104.075C324.972 105.825 324.522 108.05 324.522 110.75V131H315.147V90.95H324.072V101.75L322.497 98.45C323.897 95.9 325.922 93.95 328.572 92.6C331.272 91.2 334.372 90.5 337.872 90.5ZM366.49 131V90.95H375.865V131H366.49ZM371.215 84.35C369.465 84.35 368.015 83.8 366.865 82.7C365.765 81.6 365.215 80.275 365.215 78.725C365.215 77.125 365.765 75.8 366.865 74.75C368.015 73.65 369.465 73.1 371.215 73.1C372.965 73.1 374.39 73.625 375.49 74.675C376.64 75.675 377.215 76.95 377.215 78.5C377.215 80.15 376.665 81.55 375.565 82.7C374.465 83.8 373.015 84.35 371.215 84.35ZM410.37 131.525C406.97 131.525 403.945 130.775 401.295 129.275C398.645 127.775 396.545 125.525 394.995 122.525C393.495 119.475 392.745 115.625 392.745 110.975C392.745 106.275 393.52 102.425 395.07 99.425C396.67 96.425 398.795 94.2 401.445 92.75C404.145 91.25 407.12 90.5 410.37 90.5C414.32 90.5 417.795 91.35 420.795 93.05C423.845 94.75 426.245 97.125 427.995 100.175C429.795 103.225 430.695 106.825 430.695 110.975C430.695 115.125 429.795 118.725 427.995 121.775C426.245 124.825 423.845 127.225 420.795 128.975C417.795 130.675 414.32 131.525 410.37 131.525ZM388.17 131V75.35H397.545V100.25L396.795 110.9L397.095 121.55V131H388.17ZM409.32 123.5C411.57 123.5 413.57 123 415.32 122C417.12 121 418.545 119.55 419.595 117.65C420.645 115.75 421.17 113.525 421.17 110.975C421.17 108.375 420.645 106.15 419.595 104.3C418.545 102.4 417.12 100.95 415.32 99.95C413.57 98.95 411.57 98.45 409.32 98.45C407.07 98.45 405.045 98.95 403.245 99.95C401.445 100.95 400.02 102.4 398.97 104.3C397.92 106.15 397.395 108.375 397.395 110.975C397.395 113.525 397.92 115.75 398.97 117.65C400.02 119.55 401.445 121 403.245 122C405.045 123 407.07 123.5 409.32 123.5ZM439.586 131V90.95H448.961V131H439.586ZM444.311 84.35C442.561 84.35 441.111 83.8 439.961 82.7C438.861 81.6 438.311 80.275 438.311 78.725C438.311 77.125 438.861 75.8 439.961 74.75C441.111 73.65 442.561 73.1 444.311 73.1C446.061 73.1 447.486 73.625 448.586 74.675C449.736 75.675 450.311 76.95 450.311 78.5C450.311 80.15 449.761 81.55 448.661 82.7C447.561 83.8 446.111 84.35 444.311 84.35ZM461.265 131V75.35H470.64V131H461.265ZM482.945 131V90.95H492.32V131H482.945ZM487.67 84.35C485.92 84.35 484.47 83.8 483.32 82.7C482.22 81.6 481.67 80.275 481.67 78.725C481.67 77.125 482.22 75.8 483.32 74.75C484.47 73.65 485.92 73.1 487.67 73.1C489.42 73.1 490.845 73.625 491.945 74.675C493.095 75.675 493.67 76.95 493.67 78.5C493.67 80.15 493.12 81.55 492.02 82.7C490.92 83.8 489.47 84.35 487.67 84.35ZM521.575 131.525C517.725 131.525 514.25 130.675 511.15 128.975C508.1 127.225 505.7 124.825 503.95 121.775C502.2 118.725 501.325 115.125 501.325 110.975C501.325 106.825 502.2 103.225 503.95 100.175C505.7 97.125 508.1 94.75 511.15 93.05C514.25 91.35 517.725 90.5 521.575 90.5C524.925 90.5 527.925 91.25 530.575 92.75C533.225 94.2 535.325 96.425 536.875 99.425C538.425 102.425 539.2 106.275 539.2 110.975C539.2 115.625 538.45 119.475 536.95 122.525C535.45 125.525 533.375 127.775 530.725 129.275C528.075 130.775 525.025 131.525 521.575 131.525ZM522.7 123.5C524.95 123.5 526.95 123 528.7 122C530.5 121 531.925 119.55 532.975 117.65C534.075 115.75 534.625 113.525 534.625 110.975C534.625 108.375 534.075 106.15 532.975 104.3C531.925 102.4 530.5 100.95 528.7 99.95C526.95 98.95 524.95 98.45 522.7 98.45C520.45 98.45 518.425 98.95 516.625 99.95C514.875 100.95 513.45 102.4 512.35 104.3C511.3 106.15 510.775 108.375 510.775 110.975C510.775 113.525 511.3 115.75 512.35 117.65C513.45 119.55 514.875 121 516.625 122C518.425 123 520.45 123.5 522.7 123.5ZM534.85 131V121.55L535.225 110.9L534.475 100.25V75.35H543.775V131H534.85ZM580.789 131V122.9L580.264 121.175V107C580.264 104.25 579.439 102.125 577.789 100.625C576.139 99.075 573.639 98.3 570.289 98.3C568.039 98.3 565.814 98.65 563.614 99.35C561.464 100.05 559.639 101.025 558.139 102.275L554.464 95.45C556.614 93.8 559.164 92.575 562.114 91.775C565.114 90.925 568.214 90.5 571.414 90.5C577.214 90.5 581.689 91.9 584.839 94.7C588.039 97.45 589.639 101.725 589.639 107.525V131H580.789ZM568.189 131.525C565.189 131.525 562.564 131.025 560.314 130.025C558.064 128.975 556.314 127.55 555.064 125.75C553.864 123.9 553.264 121.825 553.264 119.525C553.264 117.275 553.789 115.25 554.839 113.45C555.939 111.65 557.714 110.225 560.164 109.175C562.614 108.125 565.864 107.6 569.914 107.6H581.539V113.825H570.589C567.389 113.825 565.239 114.35 564.139 115.4C563.039 116.4 562.489 117.65 562.489 119.15C562.489 120.85 563.164 122.2 564.514 123.2C565.864 124.2 567.739 124.7 570.139 124.7C572.439 124.7 574.489 124.175 576.289 123.125C578.139 122.075 579.464 120.525 580.264 118.475L581.839 124.1C580.939 126.45 579.314 128.275 576.964 129.575C574.664 130.875 571.739 131.525 568.189 131.525ZM618.694 131.525C614.844 131.525 611.369 130.675 608.269 128.975C605.219 127.225 602.819 124.825 601.069 121.775C599.319 118.725 598.444 115.125 598.444 110.975C598.444 106.825 599.319 103.225 601.069 100.175C602.819 97.125 605.219 94.75 608.269 93.05C611.369 91.35 614.844 90.5 618.694 90.5C622.044 90.5 625.044 91.25 627.694 92.75C630.344 94.2 632.444 96.425 633.994 99.425C635.544 102.425 636.319 106.275 636.319 110.975C636.319 115.625 635.569 119.475 634.069 122.525C632.569 125.525 630.494 127.775 627.844 129.275C625.194 130.775 622.144 131.525 618.694 131.525ZM619.819 123.5C622.069 123.5 624.069 123 625.819 122C627.619 121 629.044 119.55 630.094 117.65C631.194 115.75 631.744 113.525 631.744 110.975C631.744 108.375 631.194 106.15 630.094 104.3C629.044 102.4 627.619 100.95 625.819 99.95C624.069 98.95 622.069 98.45 619.819 98.45C617.569 98.45 615.544 98.95 613.744 99.95C611.994 100.95 610.569 102.4 609.469 104.3C608.419 106.15 607.894 108.375 607.894 110.975C607.894 113.525 608.419 115.75 609.469 117.65C610.569 119.55 611.994 121 613.744 122C615.544 123 617.569 123.5 619.819 123.5ZM631.969 131V121.55L632.344 110.9L631.594 100.25V75.35H640.894V131H631.969Z" fill="white" fill-opacity="0.73"/>
<defs>
<linearGradient id="paint0_linear_304_75" x1="90.436" y1="44.5001" x2="918.886" y2="253.358" gradientUnits="userSpaceOnUse">
<stop stop-color="white" stop-opacity="0.59"/>
<stop offset="1" stop-color="white" stop-opacity="0"/>
</linearGradient>
</defs>
</svg>
