<svg width="734" height="208" viewBox="0 0 734 208" fill="none" xmlns="http://www.w3.org/2000/svg">
<rect x="0.5" width="733" height="208" rx="15" fill="#0F004A"/>
<rect x="0.5" width="733" height="208" rx="15" fill="url(#paint0_linear_304_73)" fill-opacity="0.2"/>
<path d="M236.35 131.75C232.35 131.75 228.625 131.1 225.175 129.8C221.775 128.45 218.8 126.575 216.25 124.175C213.75 121.725 211.8 118.85 210.4 115.55C209 112.25 208.3 108.65 208.3 104.75C208.3 100.85 209 97.25 210.4 93.95C211.8 90.65 213.775 87.8 216.325 85.4C218.875 82.95 221.85 81.075 225.25 79.775C228.65 78.425 232.375 77.75 236.425 77.75C240.725 77.75 244.65 78.5 248.2 80C251.75 81.45 254.75 83.625 257.2 86.525L250.9 92.45C249 90.4 246.875 88.875 244.525 87.875C242.175 86.825 239.625 86.3 236.875 86.3C234.125 86.3 231.6 86.75 229.3 87.65C227.05 88.55 225.075 89.825 223.375 91.475C221.725 93.125 220.425 95.075 219.475 97.325C218.575 99.575 218.125 102.05 218.125 104.75C218.125 107.45 218.575 109.925 219.475 112.175C220.425 114.425 221.725 116.375 223.375 118.025C225.075 119.675 227.05 120.95 229.3 121.85C231.6 122.75 234.125 123.2 236.875 123.2C239.625 123.2 242.175 122.7 244.525 121.7C246.875 120.65 249 119.075 250.9 116.975L257.2 122.975C254.75 125.825 251.75 128 248.2 129.5C244.65 131 240.7 131.75 236.35 131.75ZM288.367 90.5C291.567 90.5 294.417 91.125 296.917 92.375C299.467 93.625 301.467 95.55 302.917 98.15C304.367 100.7 305.092 104 305.092 108.05V131H295.717V109.25C295.717 105.7 294.867 103.05 293.167 101.3C291.517 99.55 289.192 98.675 286.192 98.675C283.992 98.675 282.042 99.125 280.342 100.025C278.642 100.925 277.317 102.275 276.367 104.075C275.467 105.825 275.017 108.05 275.017 110.75V131H265.642V75.35H275.017V101.75L272.992 98.45C274.392 95.9 276.417 93.95 279.067 92.6C281.767 91.2 284.867 90.5 288.367 90.5ZM335.883 131.525C331.433 131.525 327.533 130.65 324.183 128.9C320.883 127.1 318.308 124.65 316.458 121.55C314.658 118.45 313.758 114.925 313.758 110.975C313.758 106.975 314.633 103.45 316.383 100.4C318.183 97.3 320.633 94.875 323.733 93.125C326.883 91.375 330.458 90.5 334.458 90.5C338.358 90.5 341.833 91.35 344.883 93.05C347.933 94.75 350.333 97.15 352.083 100.25C353.833 103.35 354.708 107 354.708 111.2C354.708 111.6 354.683 112.05 354.633 112.55C354.633 113.05 354.608 113.525 354.558 113.975H321.183V107.75H349.608L345.933 109.7C345.983 107.4 345.508 105.375 344.508 103.625C343.508 101.875 342.133 100.5 340.383 99.5C338.683 98.5 336.708 98 334.458 98C332.158 98 330.133 98.5 328.383 99.5C326.683 100.5 325.333 101.9 324.333 103.7C323.383 105.45 322.908 107.525 322.908 109.925V111.425C322.908 113.825 323.458 115.95 324.558 117.8C325.658 119.65 327.208 121.075 329.208 122.075C331.208 123.075 333.508 123.575 336.108 123.575C338.358 123.575 340.383 123.225 342.183 122.525C343.983 121.825 345.583 120.725 346.983 119.225L352.008 125C350.208 127.1 347.933 128.725 345.183 129.875C342.483 130.975 339.383 131.525 335.883 131.525ZM385.913 131.525C382.663 131.525 379.688 130.775 376.988 129.275C374.338 127.775 372.213 125.525 370.613 122.525C369.063 119.475 368.288 115.625 368.288 110.975C368.288 106.275 369.038 102.425 370.538 99.425C372.088 96.425 374.188 94.2 376.838 92.75C379.488 91.25 382.513 90.5 385.913 90.5C389.863 90.5 393.338 91.35 396.338 93.05C399.388 94.75 401.788 97.125 403.538 100.175C405.338 103.225 406.238 106.825 406.238 110.975C406.238 115.125 405.338 118.75 403.538 121.85C401.788 124.9 399.388 127.275 396.338 128.975C393.338 130.675 389.863 131.525 385.913 131.525ZM363.713 145.55V90.95H372.638V100.4L372.338 111.05L373.088 121.7V145.55H363.713ZM384.863 123.5C387.113 123.5 389.113 123 390.863 122C392.663 121 394.088 119.55 395.138 117.65C396.188 115.75 396.713 113.525 396.713 110.975C396.713 108.375 396.188 106.15 395.138 104.3C394.088 102.4 392.663 100.95 390.863 99.95C389.113 98.95 387.113 98.45 384.863 98.45C382.613 98.45 380.588 98.95 378.788 99.95C376.988 100.95 375.563 102.4 374.513 104.3C373.463 106.15 372.938 108.375 372.938 110.975C372.938 113.525 373.463 115.75 374.513 117.65C375.563 119.55 376.988 121 378.788 122C380.588 123 382.613 123.5 384.863 123.5ZM415.129 131V90.95H424.504V131H415.129ZM419.854 84.35C418.104 84.35 416.654 83.8 415.504 82.7C414.404 81.6 413.854 80.275 413.854 78.725C413.854 77.125 414.404 75.8 415.504 74.75C416.654 73.65 418.104 73.1 419.854 73.1C421.604 73.1 423.029 73.625 424.129 74.675C425.279 75.675 425.854 76.95 425.854 78.5C425.854 80.15 425.304 81.55 424.204 82.7C423.104 83.8 421.654 84.35 419.854 84.35ZM459.534 90.5C462.734 90.5 465.584 91.125 468.084 92.375C470.634 93.625 472.634 95.55 474.084 98.15C475.534 100.7 476.259 104 476.259 108.05V131H466.884V109.25C466.884 105.7 466.034 103.05 464.334 101.3C462.684 99.55 460.359 98.675 457.359 98.675C455.159 98.675 453.209 99.125 451.509 100.025C449.809 100.925 448.484 102.275 447.534 104.075C446.634 105.825 446.184 108.05 446.184 110.75V131H436.809V90.95H445.734V101.75L444.159 98.45C445.559 95.9 447.584 93.95 450.234 92.6C452.934 91.2 456.034 90.5 459.534 90.5ZM512.827 131V122.9L512.302 121.175V107C512.302 104.25 511.477 102.125 509.827 100.625C508.177 99.075 505.677 98.3 502.327 98.3C500.077 98.3 497.852 98.65 495.652 99.35C493.502 100.05 491.677 101.025 490.177 102.275L486.502 95.45C488.652 93.8 491.202 92.575 494.152 91.775C497.152 90.925 500.252 90.5 503.452 90.5C509.252 90.5 513.727 91.9 516.877 94.7C520.077 97.45 521.677 101.725 521.677 107.525V131H512.827ZM500.227 131.525C497.227 131.525 494.602 131.025 492.352 130.025C490.102 128.975 488.352 127.55 487.102 125.75C485.902 123.9 485.302 121.825 485.302 119.525C485.302 117.275 485.827 115.25 486.877 113.45C487.977 111.65 489.752 110.225 492.202 109.175C494.652 108.125 497.902 107.6 501.952 107.6H513.577V113.825H502.627C499.427 113.825 497.277 114.35 496.177 115.4C495.077 116.4 494.527 117.65 494.527 119.15C494.527 120.85 495.202 122.2 496.552 123.2C497.902 124.2 499.777 124.7 502.177 124.7C504.477 124.7 506.527 124.175 508.327 123.125C510.177 122.075 511.502 120.525 512.302 118.475L513.877 124.1C512.977 126.45 511.352 128.275 509.002 129.575C506.702 130.875 503.777 131.525 500.227 131.525Z" fill="white" fill-opacity="0.73"/>
<defs>
<linearGradient id="paint0_linear_304_73" x1="90.436" y1="44.5001" x2="918.886" y2="253.358" gradientUnits="userSpaceOnUse">
<stop stop-color="white" stop-opacity="0.59"/>
<stop offset="1" stop-color="white" stop-opacity="0"/>
</linearGradient>
</defs>
</svg>
